<mxfile host="app.diagrams.net" agent="Mozilla/5.0 (Windows NT 10.0; Win64; x64) AppleWebKit/537.36 (KHTML, like Gecko) Chrome/132.0.0.0 Safari/537.36" version="26.0.10">
  <diagram id="gNRSTK9LEXwnI0uhxOEp" name="PÃ¡gina-1">
    <mxGraphModel dx="392" dy="498" grid="1" gridSize="10" guides="1" tooltips="1" connect="1" arrows="1" fold="1" page="1" pageScale="1" pageWidth="827" pageHeight="1169" math="0" shadow="0">
      <root>
        <mxCell id="0" />
        <mxCell id="1" parent="0" />
        <mxCell id="GDQaLsG-0WSaPt2kzO8j-11" value="" style="edgeStyle=orthogonalEdgeStyle;rounded=0;orthogonalLoop=1;jettySize=auto;html=1;" edge="1" parent="1" source="GDQaLsG-0WSaPt2kzO8j-1" target="GDQaLsG-0WSaPt2kzO8j-9">
          <mxGeometry relative="1" as="geometry" />
        </mxCell>
        <mxCell id="GDQaLsG-0WSaPt2kzO8j-1" value="INICIO" style="strokeWidth=2;html=1;shape=mxgraph.flowchart.start_1;whiteSpace=wrap;" vertex="1" parent="1">
          <mxGeometry x="180" y="30" width="100" height="60" as="geometry" />
        </mxCell>
        <mxCell id="GDQaLsG-0WSaPt2kzO8j-6" value="" style="strokeWidth=2;html=1;shape=mxgraph.flowchart.decision;whiteSpace=wrap;" vertex="1" parent="1">
          <mxGeometry x="349" y="130" width="130" height="60" as="geometry" />
        </mxCell>
        <mxCell id="GDQaLsG-0WSaPt2kzO8j-10" value="" style="edgeStyle=orthogonalEdgeStyle;rounded=0;orthogonalLoop=1;jettySize=auto;html=1;" edge="1" parent="1" source="GDQaLsG-0WSaPt2kzO8j-9" target="GDQaLsG-0WSaPt2kzO8j-6">
          <mxGeometry relative="1" as="geometry" />
        </mxCell>
        <mxCell id="GDQaLsG-0WSaPt2kzO8j-9" value="receber&amp;nbsp;&lt;div&gt;cidade&lt;/div&gt;" style="shape=parallelogram;html=1;strokeWidth=2;perimeter=parallelogramPerimeter;whiteSpace=wrap;rounded=1;arcSize=12;size=0.23;" vertex="1" parent="1">
          <mxGeometry x="180" y="130" width="100" height="60" as="geometry" />
        </mxCell>
      </root>
    </mxGraphModel>
  </diagram>
</mxfile>
